<?xml version="1.0" standalone="no"?>
<!DOCTYPE svg PUBLIC "-//W3C//DTD SVG 20010904//EN"
 "http://www.w3.org/TR/2001/REC-SVG-20010904/DTD/svg10.dtd">
<svg version="1.0" xmlns="http://www.w3.org/2000/svg"
 width="512.000000pt" height="512.000000pt" viewBox="0 0 512.000000 512.000000"
 preserveAspectRatio="xMidYMid meet">
<metadata>
Created by potrace 1.14, written by Peter Selinger 2001-2017
</metadata>
<g transform="translate(0.000000,512.000000) scale(0.100000,-0.100000)"
fill="#000000" stroke="none">
<path d="M0 2607 l0 -2513 48 -47 48 -47 2512 0 2512 0 0 2560 0 2560 -2560 0
-2560 0 0 -2513z m959 1954 c10 -10 21 -40 25 -68 3 -27 18 -68 32 -90 32 -48
97 -93 135 -93 34 0 81 -17 91 -33 12 -19 9 -61 -4 -80 -7 -9 -37 -21 -67 -27
-104 -19 -163 -77 -184 -177 -15 -74 -30 -93 -72 -93 -41 0 -61 23 -70 80 -17
103 -84 174 -178 186 -128 17 -130 123 -3 144 97 16 170 88 182 183 8 56 32
87 69 87 14 0 33 -8 44 -19z m1405 -248 c4 -5 33 -7 64 -5 l57 3 148 -149 149
-149 -27 -27 c-16 -16 -24 -33 -21 -42 3 -9 6 -31 6 -51 0 -49 42 -89 103 -98
26 -4 50 -11 53 -16 3 -5 34 -9 69 -9 l63 0 275 -282 276 -283 -52 -6 c-29 -3
-47 -7 -42 -9 34 -9 -264 -32 -508 -38 l-289 -7 -24 -28 c-31 -36 -30 -52 4
-86 l27 -28 360 -6 c365 -6 616 -20 647 -38 10 -5 44 -9 75 -9 l58 0 255 -255
255 -255 -58 0 c-32 0 -56 -4 -53 -8 8 -14 -228 -32 -490 -39 -232 -5 -251 -7
-271 -26 -13 -11 -23 -32 -23 -47 0 -15 10 -36 23 -47 21 -19 38 -21 367 -27
314 -5 504 -16 554 -32 16 -5 18 -13 13 -68 -16 -167 -56 -300 -137 -461 l-55
-110 -445 -6 c-245 -4 -620 -7 -834 -8 -347 -1 -391 -3 -408 -18 -24 -21 -23
-68 2 -93 20 -20 33 -20 801 -20 l780 0 -18 -32 c-29 -53 -271 -290 -364 -357
l-87 -62 10 -42 c29 -130 -55 -297 -184 -363 -147 -75 -334 -28 -433 109 l-21
28 -104 -15 c-301 -46 -595 -21 -883 75 -187 62 -418 186 -514 274 l-48 44 40
1 c22 1 304 1 627 0 581 -1 587 -1 607 19 27 27 27 65 0 92 l-21 21 -697 -3
c-533 -3 -701 0 -718 9 -26 14 -127 132 -148 172 -14 27 -14 28 18 33 18 3
246 3 507 0 l475 -6 28 22 c30 25 35 57 13 87 -14 18 -35 19 -587 24 l-574 5
-52 100 c-84 160 -183 466 -183 568 l0 27 198 0 c108 0 202 4 208 8 23 15 32
45 22 74 -6 15 -11 29 -11 30 -1 1 -99 4 -217 7 l-215 6 -9 67 c-4 36 -4 99 0
140 l9 73 410 0 c226 0 419 3 431 8 47 17 50 92 5 116 -13 7 -159 11 -425 11
l-406 0 0 23 c0 22 12 79 31 151 l10 38 724 -3 c700 -4 724 -3 744 15 25 23
27 63 5 94 l-15 22 -705 0 c-608 0 -704 2 -704 14 0 24 76 192 126 279 74 128
136 213 252 342 l45 50 559 0 560 0 24 30 c28 34 25 67 -7 100 -19 20 -30 20
-491 16 -536 -4 -504 -11 -364 83 158 107 363 199 489 221 17 3 34 8 38 11 11
6 56 13 134 20 33 3 62 7 64 10 7 7 37 5 45 -3z m1880 -3314 c35 -28 33 -73
-5 -102 -68 -50 -139 50 -73 102 33 26 45 26 78 0z m-3130 -270 c30 -35 32
-58 11 -98 -16 -33 -33 -41 -80 -41 -46 0 -89 50 -81 94 14 75 103 101 150 45z"/>
<path d="M876 4268 l-29 -29 28 -29 c36 -37 44 -37 79 -1 l29 30 -31 30 c-17
17 -34 30 -39 30 -4 -1 -21 -15 -37 -31z"/>
<path d="M2452 3560 l-334 -5 -19 -24 c-24 -30 -24 -62 0 -92 l19 -24 369 -3
c364 -3 369 -3 396 18 27 21 35 58 21 95 -9 22 -58 45 -91 43 -15 -1 -178 -5
-361 -8z"/>
<path d="M2172 2777 c-28 -29 -28 -68 -1 -93 20 -18 43 -19 373 -22 193 -2
361 0 373 3 34 8 53 33 53 70 0 65 -1 65 -410 65 l-367 0 -21 -23z"/>
<path d="M1670 2381 c-36 -5 -47 -11 -58 -33 -11 -23 -11 -33 0 -55 13 -27 16
-28 118 -34 58 -4 365 -7 683 -8 l578 -1 24 25 c31 30 32 65 2 93 l-23 22
-640 -2 c-351 0 -659 -4 -684 -7z"/>
<path d="M2082 1970 c-24 -3 -48 -13 -53 -21 -13 -21 -11 -63 5 -85 14 -18 35
-19 762 -22 l747 -2 24 22 c30 28 29 63 -2 93 l-24 25 -708 -1 c-389 -1 -728
-5 -751 -9z"/>
<path d="M3279 1080 c-53 -9 -100 -40 -134 -89 -64 -91 -27 -234 74 -288 94
-49 215 -15 269 76 86 147 -42 330 -209 301z"/>
</g>
</svg>
